<?xml version="1.0" encoding="utf-8"?>
<!-- Generator: Adobe Illustrator 21.0.0, SVG Export Plug-In . SVG Version: 6.00 Build 0)  -->
<svg version="1.1" id="图层_1" xmlns="http://www.w3.org/2000/svg" xmlns:xlink="http://www.w3.org/1999/xlink" x="0px" y="0px"
	 viewBox="0 0 198.4 198.4" style="enable-background:new 0 0 198.4 198.4;" xml:space="preserve">
<style type="text/css">
	.st0{fill:#999999;}
</style>
<g>
	<path class="st0" d="M159.4,158.5H39c-5.9,0-10.7-4.9-10.7-11V50.9c0-6.1,4.8-11,10.7-11h51.1c2.5,0,4.7,1.4,5.9,3.5L112.9,75h43.8
		c5.9,0,13.3,7.1,13.3,13.2v59.3C170.1,153.6,165.3,158.5,159.4,158.5z M44.6,148.1h109.2c3.3,0,6-2.6,6-5.9V92.7c0-3.9-3.2-7-7.1-7
		h-42c-2.7,0-5.1-1.5-6.3-3.8L87.9,52.6c-1-1.9-3.1-3.1-5.3-3.1h-38c-3.3,0-6,2.6-6,5.9v86.8C38.6,145.4,41.3,148.1,44.6,148.1
		L44.6,148.1z"/>
	<path class="st0" d="M153.6,80.7c-3.7,0.1-6.8-3-6.8-6.7V63.7c0-2.6-2.1-5-4.7-5H100c-3.7,0-6.8-3-6.8-6.7c0.1-3.6,3-4.2,6.6-4.2
		h47.7c6.1,0,11.1,7.1,11.1,13.2v13.2C158.6,77.7,157.2,80.6,153.6,80.7L153.6,80.7z"/>
</g>
</svg>
