<?xml version="1.0" encoding="utf-8"?>
<!-- Generator: Adobe Illustrator 21.0.0, SVG Export Plug-In . SVG Version: 6.00 Build 0)  -->
<svg version="1.1" id="图层_1" xmlns="http://www.w3.org/2000/svg" xmlns:xlink="http://www.w3.org/1999/xlink" x="0px" y="0px"
	 viewBox="0 0 198.4 198.4" style="enable-background:new 0 0 198.4 198.4;" xml:space="preserve">
<style type="text/css">
	.st0{fill:#FFFFFF;}
</style>
<path class="st0" d="M102.4,25.5c-0.9-0.8-2-1.2-3.2-1.2c-1.2,0-2.3,0.4-3.2,1.2L17.5,97.2c-1.5,1.4-2,3.6-1.3,5.5
	c0.7,1.9,2.5,3.2,4.5,3.2h14.7v40.3c0,15.4,12.2,28,27.1,28h49.6l0.3,0c8.7-0.1,15.8-7.5,15.8-16.5v-33.4c0-9.1-7.2-16.5-16-16.5
	h-26c-8.8,0-16,7.4-16,16.5v21.5c0,2.8,2.2,5,4.8,5c2.7,0,4.9-2.3,4.8-5c0,0,0,0,0,0v-21.5c0-3.6,2.8-6.5,6.3-6.5h26
	c3.5,0,6.3,2.9,6.3,6.5v33.4c0,3.6-2.8,6.5-6.3,6.5H62.4c-9.6,0-17.5-8.1-17.5-18v-45.3c0-2.7-2.1-4.9-4.8-5h-6.7l3.7-3.4L98,37
	l1.2-1.1l1.2,1.1l60.9,55.6L165,96h-6.7c-2.7,0-4.9,2.3-4.8,5v45.3c0.1,6.1-3,11.9-8.2,15.3c-2.3,1.5-2.9,4.5-1.5,6.9
	c0.9,1.5,2.4,2.3,4.1,2.3c0.9,0,1.8-0.3,2.6-0.8c8-5.2,12.7-14.2,12.7-23.7v-40.3h14.7c2,0,3.8-1.3,4.5-3.2c0.7-1.9,0.2-4.1-1.3-5.5
	L102.4,25.5L102.4,25.5z"/>
</svg>
