<?xml version="1.0" encoding="utf-8"?>
<!-- Generator: Adobe Illustrator 21.0.0, SVG Export Plug-In . SVG Version: 6.00 Build 0)  -->
<svg version="1.1" id="图层_1" xmlns="http://www.w3.org/2000/svg" xmlns:xlink="http://www.w3.org/1999/xlink" x="0px" y="0px"
	 viewBox="0 0 198.4 198.4" style="enable-background:new 0 0 198.4 198.4;" xml:space="preserve">
<style type="text/css">
	.st0{fill:#FFFFFF;}
</style>
<g>
	<path class="st0" d="M149.8,28.3H48.6c-11.2,0-20.3,9.1-20.3,20.3v101.2c0,11.2,9.1,20.3,20.3,20.3h101.2
		c11.2,0,20.3-9.1,20.3-20.3V48.6C170.1,37.4,161,28.3,149.8,28.3z M160,149.9c0,5.6-4.5,10.1-10.1,10.1c0,0,0,0,0,0H48.6
		c-2.7,0-5.3-1.1-7.2-3c-1.9-1.9-3-4.4-3-7.2V48.6c0-5.6,4.6-10.1,10.2-10.1h101.2c5.6,0,10.1,4.5,10.1,10.1c0,0,0,0,0,0L160,149.9
		L160,149.9z"/>
	<path class="st0" d="M144,72.8h-40.3c-2.8,0-5,2.2-5,5c0,0,0,0,0,0c0,2.8,2.3,5,5,5c0,0,0,0,0,0H144c2.8,0,5-2.2,5-5c0,0,0,0,0,0
		C149,75.1,146.8,72.8,144,72.8C144,72.8,144,72.8,144,72.8L144,72.8z M144,113h-40.3c-2.8,0-5,2.2-5,5c0,0,0,0,0,0c0,2.8,2.3,5,5,5
		c0,0,0,0,0,0H144c2.8,0,5-2.2,5-5c0,0,0,0,0,0C149,115.2,146.8,113,144,113C144,113,144,113,144,113L144,113z M73.4,100.5
		c-9.7,0-17.6,7.9-17.6,17.6c0,9.7,7.9,17.6,17.6,17.6S91,127.7,91,118S83.1,100.5,73.4,100.5z M78.8,123.4
		c-2.6,2.5-6.6,2.9-9.6,0.9c-3-2-4.2-5.8-2.8-9.2c1.4-3.3,4.9-5.2,8.5-4.5c3.5,0.7,6.1,3.8,6.1,7.4C81,120,80.2,122,78.8,123.4
		L78.8,123.4z M85,64.3L68.4,80.8l-6.5-6.5C60.6,73,58.7,72.6,57,73c-1.7,0.5-3.1,1.8-3.6,3.5c-0.5,1.7,0,3.6,1.3,4.8l10.1,10
		c2,2,5.2,2,7.1,0l20.2-20.1c1.9-2,1.9-5.1,0-7.1C90.1,62.3,86.9,62.3,85,64.3z"/>
</g>
</svg>
