<?xml version="1.0" encoding="utf-8"?>
<!-- Generator: Adobe Illustrator 21.0.0, SVG Export Plug-In . SVG Version: 6.00 Build 0)  -->
<svg version="1.1" id="图层_1" xmlns="http://www.w3.org/2000/svg" xmlns:xlink="http://www.w3.org/1999/xlink" x="0px" y="0px"
	 viewBox="0 0 200 200" style="enable-background:new 0 0 200 200;" xml:space="preserve">
<style type="text/css">
	.st0{fill:#14A31E;}
</style>
<path class="st0" d="M170.1,10H30.8c-11,0-19.9,8.9-19.9,19.9v139.3c0,11,8.9,19.9,19.9,19.9h139.3c11,0,19.9-8.9,19.9-19.9V29.9
	C190,18.9,181.1,10,170.1,10L170.1,10z M180,169.1c0,5.5-4.5,9.9-9.9,9.9H30.8c-5.5,0-9.9-4.5-9.9-9.9V29.9c0-5.5,4.5-9.9,9.9-9.9
	h139.3c5.5,0,9.9,4.5,9.9,9.9V169.1L180,169.1z"/>
<path class="st0" d="M56.4,49.6v100.2h11.7V49.6H56.4z M119.6,106.1c9.4,0.3,17.3-2.3,23.6-7.8s9.4-12.7,9.4-21.5
	c0-8.7-2.7-15.5-8.1-20.2c-5.4-4.7-13-7.1-22.7-7.1H96.2v100.2h11.7V106L119.6,106.1L119.6,106.1z M119.7,59.9
	c13.8,0,20.7,5.8,20.7,17.4c0,6-1.8,10.6-5.5,13.8c-3.7,3.2-9.1,4.8-16.2,4.8h-10.8v-36L119.7,59.9L119.7,59.9z"/>
</svg>
