<?xml version="1.0" encoding="utf-8"?>
<!-- Generator: Adobe Illustrator 21.0.0, SVG Export Plug-In . SVG Version: 6.00 Build 0)  -->
<svg version="1.1" id="图层_1" xmlns="http://www.w3.org/2000/svg" xmlns:xlink="http://www.w3.org/1999/xlink" x="0px" y="0px"
	 viewBox="0 0 198.4 198.4" style="enable-background:new 0 0 198.4 198.4;" xml:space="preserve">
<style type="text/css">
	.st0{fill:#FFFFFF;}
</style>
<path class="st0" d="M84.1,100.4c-1.4-1.4-3.7-1.9-5.1-0.9c-5.1,2.3-11.6,1.4-15.8-2.8L41.8,75.3c-5.1-5.1-5.1-13.9,0-19.5
	l14.4-14.4c5.6-5.6,14.4-5.6,19.5,0l21.4,21.4c4.2,4.2,5.1,10.7,2.8,15.8c-0.9,1.9-0.9,4.2,0.9,5.6c2.3,2.3,6,1.4,7.4-1.4
	c4.2-8.8,2.8-19.5-4.2-27L82.7,34.8c-9.3-9.3-23.7-9.3-33,0L35.3,49.2c-9.3,9.3-9.3,23.7,0,33l21.4,21.4c7,7,17.7,8.4,26.5,4.6
	C86,106.4,86.4,102.7,84.1,100.4z M114.8,97.1c1.4,1.4,3.7,1.9,5.1,0.9c5.1-2.3,11.6-1.4,15.8,2.8l21.4,21.4
	c5.6,5.6,5.6,14.4,0,19.5l-14.4,14.4c-5.6,5.6-14.4,5.6-19.5,0l-21.8-20.9c-4.2-4.2-5.1-10.7-2.8-15.8c0.9-1.9,0.9-4.2-0.9-5.6
	c-2.3-2.3-6-1.4-7.4,1.4c-4.2,8.8-2.8,19.5,4.2,27l21.4,21.4c9.3,9.3,23.7,9.3,33,0l14.4-14.4c9.3-9.3,9.3-23.7,0-33l-21.4-21.4
	c-7-7-17.7-8.4-26.5-4.6C112.9,91.1,112.4,94.8,114.8,97.1L114.8,97.1z M118.5,61.3c-2.8,0-4.6-1.9-4.6-4.6V38.1
	c0-2.3,2.3-4.6,4.6-4.6c2.3,0,4.6,1.9,4.6,4.6v18.6C123.1,59,121.3,61.3,118.5,61.3z M132,69.7c-1.9-1.9-1.9-4.6,0-6.5l13-13
	c1.9-1.9,4.6-1.9,6.5,0c1.9,1.9,1.9,4.6,0,6.5l-13,13C136.6,71.6,133.4,71.6,132,69.7L132,69.7z M140.3,82.7c0-2.8,1.9-4.6,4.6-4.6
	h18.6c2.8,0,4.6,1.9,4.6,4.6c0,2.3-1.9,4.6-4.6,4.6H145C142.2,87.4,140.3,85.5,140.3,82.7z M61.8,118c0-2.8-1.9-4.6-4.6-4.6H38.6
	c-2.3,0-4.6,1.9-4.6,4.6c0,2.3,1.9,4.6,4.6,4.6h18.6C59.5,122.7,61.8,120.8,61.8,118z M70.2,131c-1.9-1.9-4.6-1.9-6.5,0l-13,13
	c-1.9,1.9-1.9,4.6,0,6.5c1.9,1.9,4.6,1.9,6.5,0l13-13C72,136.1,72,132.9,70.2,131z M83.2,139.9c-2.8,0-4.6,1.9-4.6,4.6v18.6
	c0,2.8,1.9,4.6,4.6,4.6c2.3,0,4.6-2.3,4.6-4.6v-18.6C87.8,141.7,86,139.9,83.2,139.9z"/>
</svg>
