<?xml version="1.0" encoding="utf-8"?>
<!-- Generator: Adobe Illustrator 21.0.0, SVG Export Plug-In . SVG Version: 6.00 Build 0)  -->
<svg version="1.1" id="图层_1" xmlns="http://www.w3.org/2000/svg" xmlns:xlink="http://www.w3.org/1999/xlink" x="0px" y="0px"
	 viewBox="0 0 198.4 198.4" style="enable-background:new 0 0 198.4 198.4;" xml:space="preserve">
<style type="text/css">
	.st0{fill:#FFFFFF;}
</style>
<g>
	<path class="st0" d="M149.2,37.5c2.5,0,4.6,2.1,4.6,4.6v114.2c0,2.6-2,4.6-4.5,4.6H49.1c-2.5,0-4.6-2.1-4.6-4.6V42.1
		c0-2.6,2-4.6,4.5-4.6h23.2v-9.1H49.1c-7.6,0-13.7,6.1-13.7,13.7c0,0,0,0,0,0v114.2c0,7.6,6.1,13.7,13.7,13.7h100.1
		c7.6,0,13.7-6.2,13.7-13.7c0,0,0,0,0,0V42.1c0-7.6-6.1-13.7-13.7-13.7H69.1v9.1H149.2z"/>
	<path class="st0" d="M64.9,106.1h68.6c2.5,0,4.6-2,4.6-4.6s-2-4.6-4.6-4.6l0,0H64.9c-2.5,0-4.6,2-4.6,4.6S62.4,106.1,64.9,106.1z
		 M64.9,138.1h68.6c2.5,0,4.6-2,4.6-4.6s-2-4.6-4.6-4.6l0,0H64.9c-2.5,0-4.6,2-4.6,4.6S62.4,138.1,64.9,138.1z M128.9,51.2
		c0,2.5-2,4.6-4.5,4.6H74c-2.5,0-4.5-2.1-4.5-4.6c0,0,0,0,0,0V37.5h-9.1v13.7c0,7.6,6.1,13.7,13.7,13.7c0,0,0,0,0,0h50.4
		c7.6,0,13.7-6.2,13.7-13.7V37.5h-9.1L128.9,51.2L128.9,51.2z"/>
</g>
</svg>
