<?xml version="1.0" encoding="utf-8"?>
<!-- Generator: Adobe Illustrator 21.0.0, SVG Export Plug-In . SVG Version: 6.00 Build 0)  -->
<svg version="1.1" id="图层_1" xmlns="http://www.w3.org/2000/svg" xmlns:xlink="http://www.w3.org/1999/xlink" x="0px" y="0px"
	 viewBox="0 0 198.4 198.4" style="enable-background:new 0 0 198.4 198.4;" xml:space="preserve">
<style type="text/css">
	.st0{fill:#FFFFFF;stroke:#FFFFFF;stroke-width:4;stroke-miterlimit:10;}
</style>
<path class="st0" d="M163.7,146.1l-8.7,8.7l-21.3-21.3c3.2-2.6,6.1-5.5,8.7-8.7L163.7,146.1z M136.2,58l4.4-4.4
	c-2.7-3.1-5.8-5.8-9.1-8.2l-4.4,4.4C130.4,52.2,133.5,54.9,136.2,58z M172.9,96.4v-6.1h-18.4c0-9.2-2.3-18.3-6.7-26.4l-4.6,4.6
	c3.3,6.6,5.2,14,5.2,21.8c0,27.1-22,49.1-49.1,49.1s-49.1-22-49.1-49.1s22-49.1,49.1-49.1c5.7,0,11.2,1,16.3,2.9l4.8-4.8
	c-6.7-2.8-13.9-4.2-21.1-4.2c-30.5,0-55.3,24.8-55.3,55.3H25.5v6.1h18.8c3.1,27.6,26.5,49.1,54.9,49.1c10.8,0,20.9-3.2,29.4-8.5
	l26.4,26.4l17.4-17.4L146,119.6c4.3-6.9,7.2-14.8,8.2-23.2L172.9,96.4L172.9,96.4z M117.3,72.6l-17.8,29.7L81,65.3L66.7,90.3h-4.4
	v6.1h7.9l10.3-18.1L99,115.1l19-31.7l10.4,13.1h7.6v-6.1h-4.7L117.3,72.6L117.3,72.6z"/>
</svg>
