<?xml version="1.0" encoding="utf-8"?>
<!-- Generator: Adobe Illustrator 21.0.0, SVG Export Plug-In . SVG Version: 6.00 Build 0)  -->
<svg version="1.1" id="图层_1" xmlns="http://www.w3.org/2000/svg" xmlns:xlink="http://www.w3.org/1999/xlink" x="0px" y="0px"
	 viewBox="0 0 283.5 283.5" style="enable-background:new 0 0 283.5 283.5;" xml:space="preserve">
<style type="text/css">
	.st0{fill:#FFFFFF;stroke:#FFFFFF;stroke-width:10;stroke-miterlimit:10;}
</style>
<path class="st0" d="M246,155.1c-4-9.5-9.8-18.1-17.2-25.5c-7.4-7.4-15.9-13.1-25.5-17.2c-9.9-4.2-20.4-6.3-31.2-6.3H68.6L125,49.7
	l0,0c4.3-4.3,4.3-11.2,0-15.5s-11.2-4.3-15.5,0l0,0l-75.1,75.1l0,0c-2,2-3.2,4.7-3.2,7.7s1.2,5.8,3.2,7.7l0,0l75.1,75.1l0,0
	c4.3,4.3,11.2,4.3,15.5,0s4.3-11.2,0-15.5l0,0l-56.4-56.4h103.6c32.1,0,58.3,26.1,58.3,58.3v55.1c0,6,4.9,10.9,10.9,10.9
	s10.9-4.9,10.9-10.9v-55.1C252.3,175.5,250.2,165,246,155.1L246,155.1z"/>
</svg>
