<?xml version="1.0" encoding="utf-8"?>
<!-- Generator: Adobe Illustrator 21.0.0, SVG Export Plug-In . SVG Version: 6.00 Build 0)  -->
<svg version="1.1" id="图层_1" xmlns="http://www.w3.org/2000/svg" xmlns:xlink="http://www.w3.org/1999/xlink" x="0px" y="0px"
	 viewBox="0 0 200 200" style="enable-background:new 0 0 200 200;" xml:space="preserve">
<style type="text/css">
	.st0{fill:#14A31E;}
</style>
<path class="st0" d="M28.5,21.4c-8.7,0-15.9,7-15.9,15.6v15.6c0,8.6,7.1,15.5,15.9,15.5h142.9c8.7,0,15.9-7,15.9-15.5V37
	c0-8.6-7.1-15.6-15.9-15.6C171.5,21.4,28.5,21.4,28.5,21.4z M177.4,38.3v13.8c0,2.8-3.4,7.3-8.1,7.3H29.8c-5.7,0-7.8-4.6-7.8-8.3
	V38.3c0-2.8,3.4-7.7,7.8-7.7h139.5C173.9,30.6,177.4,33.7,177.4,38.3L177.4,38.3z M161.9,52.5c4.4,0,7.9-3.5,7.9-7.8
	s-3.6-7.8-7.9-7.8c-4.4,0-7.9,3.5-7.9,7.8S157.5,52.5,161.9,52.5L161.9,52.5z M28.5,76.7c-8.7,0-15.9,7-15.9,15.6v15.6
	c0,8.6,7.1,15.5,15.9,15.5h142.9c8.7,0,15.9-7,15.9-15.5V92.2c0-8.6-7.1-15.6-15.9-15.6C171.5,76.7,28.5,76.7,28.5,76.7z
	 M177.4,93.6v13.8c0,2.8-3.4,7.3-8.1,7.3H29.8c-5.7,0-7.8-4.6-7.8-8.3V93.6c0-2.8,3.4-7.7,7.8-7.7h139.5
	C173.9,85.9,177.4,88.9,177.4,93.6L177.4,93.6z M161.9,107.8c4.4,0,7.9-3.5,7.9-7.8s-3.6-7.8-7.9-7.8c-4.4,0-7.9,3.5-7.9,7.8
	S157.5,107.8,161.9,107.8L161.9,107.8z M28.5,131.9c-8.7,0-15.9,7-15.9,15.6v15.6c0,8.6,7.1,15.5,15.9,15.5h142.9
	c8.7,0,15.9-7,15.9-15.5v-15.6c0-8.6-7.1-15.6-15.9-15.6H28.5z M177.4,148.8v13.8c0,2.8-3.4,7.3-8.1,7.3H29.8
	c-5.7,0-7.8-4.6-7.8-8.3v-12.8c0-2.8,3.4-7.7,7.8-7.7h139.5C173.9,141.2,177.4,144.2,177.4,148.8z M161.9,163c4.4,0,7.9-3.5,7.9-7.8
	s-3.6-7.8-7.9-7.8c-4.4,0-7.9,3.5-7.9,7.8C154,159.6,157.5,163.1,161.9,163L161.9,163z"/>
</svg>
