<?xml version="1.0" encoding="utf-8"?>
<!-- Generator: Adobe Illustrator 21.0.0, SVG Export Plug-In . SVG Version: 6.00 Build 0)  -->
<svg version="1.1" id="图层_1" xmlns="http://www.w3.org/2000/svg" xmlns:xlink="http://www.w3.org/1999/xlink" x="0px" y="0px"
	 viewBox="0 0 198.4 198.4" style="enable-background:new 0 0 198.4 198.4;" xml:space="preserve">
<style type="text/css">
	.st0{fill:none;stroke:#999999;stroke-width:10;stroke-miterlimit:10;}
	.st1{fill:#999999;}
</style>
<g>
	<path class="st0" d="M28.3,99.2c0,39.1,31.7,70.9,70.8,70.9s70.9-31.7,70.9-70.8c0,0,0,0,0,0c0-39.1-31.7-70.9-70.9-70.9
		S28.3,60,28.3,99.2C28.3,99.2,28.3,99.2,28.3,99.2z"/>
	<path class="st1" d="M49.6,105.9l7.4-0.7c0,2,0.7,4,1.3,4.7c1.3,1.3,3.4,2,6.1,2s4-0.7,5.4-1.3c1.3-0.7,1.3-2,1.3-3.4
		c0-1.3-0.7-2-1.3-2.7c-0.7-0.7-2-1.3-5.4-2.7c-2.7-1.3-4.7-2-6.1-3.4c-1.3-0.7-2-1.3-3.4-2.7c-0.7-1.3-0.7-3.4-0.7-4.7
		c0-3.4,1.3-5.4,3.4-7.4c2-2,5.4-3.4,9.4-3.4c4,0,7.4,0.7,10.1,2.7c2,2,3.4,4.7,4,8.1h-7.4c0-2-0.7-3.4-2-4
		c-0.7-0.7-2.7-0.7-4.7-0.7c-2,0-3.4,0.7-4.7,1.3c-0.7,0-1.3,1.3-1.3,2c0,1.3,0.7,2,1.3,2.7c0.7,0.7,2.7,1.3,5.4,2.7
		c4.7,2,7.4,4,8.1,4.7c2,1.3,2.7,4,2.7,6.7c0,3.4-1.3,6.1-4,8.1c-2.7,2-6.1,3.4-10.8,3.4c-3.4,0-6.1-0.7-8.1-1.3s-3.4-2.7-4.7-4.7
		C50.3,110,49.6,108,49.6,105.9L49.6,105.9z M82,105.9l7.4-0.7c0,2,0.7,4,1.3,4.7c1.3,1.3,3.4,2,6.1,2c2.7,0,4-0.7,5.4-1.3
		c1.3-0.7,1.3-2,1.3-3.4c0-1.3-0.7-2-1.3-2.7c-0.7-0.7-2.7-1.3-5.4-2.7c-2.7-1.3-4.7-2-6.1-3.4c-1.3-0.7-2.7-1.3-3.4-2.7
		c-0.7-1.3-0.7-3.4-0.7-4.7c0-3.4,1.3-5.4,3.4-7.4c2-2.7,5.4-3.4,9.4-3.4c4,0,7.4,0.7,10.1,2.7c2,2,3.4,4.7,3.4,8.1h-7.4
		c0-2-0.7-3.4-2-4c-0.7-0.7-2-0.7-4-0.7c-2,0-3.4,0.7-4.7,1.3c-0.7,0-1.3,1.3-1.3,2c0,1.3,0.7,2,1.3,2.7c0.7,0.7,2.7,1.3,5.4,2.7
		c4,2,6.7,3.4,8.1,4.7c2,1.3,2.7,4,2.7,6.7c0,3.4-1.3,6.1-4,8.1c-2.7,2-6.1,3.4-10.8,3.4c-3.4,0-6.1-0.7-8.1-1.3s-4-2.7-4.7-4.7
		C82.7,110,82,108,82,105.9L82,105.9z M137.3,101.2h-14.2l-3.4,16.2h-7.4l7.4-36.4h7.4l-2.7,14.2h14.2l2.7-14.2h7.4l-7.4,36.4H134
		L137.3,101.2L137.3,101.2z"/>
</g>
</svg>
