<?xml version="1.0" encoding="utf-8"?>
<!-- Generator: Adobe Illustrator 21.0.0, SVG Export Plug-In . SVG Version: 6.00 Build 0)  -->
<svg version="1.1" id="图层_1" xmlns="http://www.w3.org/2000/svg" xmlns:xlink="http://www.w3.org/1999/xlink" x="0px" y="0px"
	 viewBox="0 0 198.4 198.4" style="enable-background:new 0 0 198.4 198.4;" xml:space="preserve">
<style type="text/css">
	.st0{fill:#999999;}
</style>
<g>
	<path class="st0" d="M144,171.4H53.9c-14.3,0-25.6-11.3-25.6-25.6V65.4c0-14.3,11.3-25.6,25.6-25.6h90.6
		c14.3,0,25.6,11.3,25.6,25.6v79.8C169.6,159.6,158.3,171.4,144,171.4z M53.9,50.1c-8.7,0-15.4,6.7-15.4,15.4v79.8
		c0,8.7,6.7,15.4,15.4,15.4h90.6c8.7,0,15.4-6.7,15.4-15.4V65.4c0-8.7-6.7-15.4-15.4-15.4C144.5,50.1,53.9,50.1,53.9,50.1z"/>
	<path class="st0" d="M73.4,68c-3.1,0-5.1-2-5.1-5.1V32.2c0-3.1,2-5.1,5.1-5.1s5.1,2,5.1,5.1v30.7C78.5,66,75.9,68,73.4,68z
		 M125.1,68c-3.1,0-5.1-2-5.1-5.1V32.2c0-3.1,2-5.1,5.1-5.1c3.1,0,5.1,2,5.1,5.1v30.7C130.2,66,127.6,68,125.1,68z M90.3,126.8
		c-1.5,0-3.1-0.5-3.6-1.5l-15.9-17.4c-2-2-1.5-5.1,0.5-7.2c2-2,5.1-1.5,7.2,0.5l12.8,13.8l30.2-28.1c2-2,5.1-2,7.2,0s2,5.1,0,7.2
		l-33.8,31.7C92.8,126.3,91.3,126.8,90.3,126.8L90.3,126.8z"/>
</g>
</svg>
